PathFileType  4	(X/Y/Z) C:\Users\antoi\Documents\MyRepositories\mobilecap\ResultsAnalysis
DataRate	CameraRate	NumFrames	NumMarkers	Units	OrigDataRate	OrigDataStartFrame	OrigNumFrames
100.0	100.0	4	51	mm	100.0	65	256
Frame#	Time	r_knee			r_shank_antsup			r_ankle			r_calc			r_5meta			r_toe			L_knee			L_shank_antsup			L_ankle			L_calc			L_5meta			L_toe			r_sh2			r_sh3			r_sh4			L_sh2			L_sh3			r_thigh1			r_thigh2			r_thigh3			r_thigh4			r_thigh5			L_thigh1			L_thigh2			L_thigh3			L_thigh4			r.ASIS			r.PSIS			L.ASIS			L.PSIS			C7			R_Shoulder			L_Shoulder			R_Sternum			L_Sternum			R_humerus			R_elbow_med			R_elbow_lat			R_forearm			R_wrist_radius			R_wrist_ulna			L_humerus			L_elbow_med			L_elbow_lat			L_forearm			L_wrist_radius			L_wrist_ulna			R_HJC			L_HJC			R_HJC_reg			L_HJC_reg			
		X1	Y1	Z1	X2	Y2	Z2	X3	Y3	Z3	X4	Y4	Z4	X5	Y5	Z5	X6	Y6	Z6	X7	Y7	Z7	X8	Y8	Z8	X9	Y9	Z9	X10	Y10	Z10	X11	Y11	Z11	X12	Y12	Z12	X13	Y13	Z13	X14	Y14	Z14	X15	Y15	Z15	X16	Y16	Z16	X17	Y17	Z17	X18	Y18	Z18	X19	Y19	Z19	X20	Y20	Z20	X21	Y21	Z21	X22	Y22	Z22	X23	Y23	Z23	X24	Y24	Z24	X25	Y25	Z25	X26	Y26	Z26	X27	Y27	Z27	X28	Y28	Z28	X29	Y29	Z29	X30	Y30	Z30	X31	Y31	Z31	X32	Y32	Z32	X33	Y33	Z33	X34	Y34	Z34	X35	Y35	Z35	X36	Y36	Z36	X37	Y37	Z37	X38	Y38	Z38	X39	Y39	Z39	X40	Y40	Z40	X41	Y41	Z41	X42	Y42	Z42	X43	Y43	Z43	X44	Y44	Z44	X45	Y45	Z45	X46	Y46	Z46	X47	Y47	Z47	X48	Y48	Z48	X49	Y49	Z49	X50	Y50	Z50	X51	Y51	Z51	

65	0.64000000	-804.39792	864.48824	-423.12261	-913.90856	771.34331	-380.78349	-1163.63414	512.50404	-403.57568	-1223.16189	539.91013	-465.27100	-1124.27934	368.15829	-383.91883	-1084.38318	367.18715	-437.92732	-884.82100	857.80488	-765.94918	-958.38090	669.99546	-746.45058	-1224.27899	504.61302	-740.32251	-1286.51323	504.64978	-670.66241	-1165.17882	354.49915	-781.26921	-1109.70862	366.92157	-729.03573	-994.93049	696.79922	-373.16127	-866.68991	729.93583	-421.23246	-946.19427	648.04692	-422.93462	-1006.58580	722.12643	-799.29694	-1092.81018	643.58011	-777.20518	-810.06478	1152.63584	-386.13771	-774.20925	1045.78488	-391.71011	-829.78779	1005.21004	-385.60833	-915.99682	1122.26090	-411.79349	-881.31677	1008.96659	-407.46013	-937.72606	1148.16145	-767.52477	-927.09625	1012.32897	-782.31562	-826.91190	1150.88609	-771.03490	-818.81891	1015.13612	-773.94228	-801.05859	1418.36542	-439.07546	-982.77809	1474.49933	-527.06779	-818.07134	1405.64435	-717.40644	-984.93760	1475.13156	-619.74927	-828.02508	1942.95081	-599.82689	-742.93860	1910.78725	-449.40938	-778.04375	1916.47866	-754.57450	-700.83011	1842.01970	-577.82104	-704.76414	1840.85728	-628.97444	-761.98199	1716.65821	-267.90403	-859.09013	1592.92412	-223.76750	-832.58917	1660.45864	-168.75771	-644.64028	1653.86326	-268.16067	-574.40685	1650.79346	-320.50139	-563.88617	1639.35786	-285.49378	-743.85944	1689.84430	-912.78972	-826.09901	1572.24269	-933.54595	-784.86531	1621.48215	-992.10444	-625.51718	1679.74976	-881.33408	-581.00881	1703.31577	-834.29485	-562.94338	1680.32121	-852.28581	-895.44986	1335.51456	-473.18377	-909.88719	1331.57163	-670.09233	-887.13443	1336.96007	-477.50285	-891.42514	1338.21578	-661.68024	
66	0.65000000	-792.51711	877.05450	-420.40563	-901.57476	783.83783	-377.57888	-1147.14728	521.94365	-400.48562	-1204.00660	554.39795	-462.38116	-1118.97479	374.30875	-383.57692	-1079.37073	370.05823	-437.78298	-876.01569	872.24759	-767.84005	-948.03631	684.05305	-750.82426	-1211.46074	515.31634	-743.55404	-1271.84625	519.98597	-673.83751	-1161.67098	359.72320	-782.28387	-1105.85209	368.72903	-729.94566	-981.48620	708.55717	-369.81828	-853.69645	742.80828	-417.45612	-932.03936	659.88400	-418.80056	-997.57525	736.61778	-801.87612	-1082.55038	656.64321	-779.84426	-797.13566	1164.89448	-384.56850	-762.19479	1057.89234	-388.83641	-818.04384	1017.60368	-383.45965	-903.01366	1134.95424	-411.76720	-869.19276	1021.30602	-406.20484	-926.08800	1162.34948	-768.06140	-916.49619	1026.69375	-783.14818	-815.40933	1164.13108	-773.03582	-808.52069	1028.30430	-776.96669	-786.89897	1432.79920	-439.11887	-968.91660	1487.22496	-526.57568	-803.81292	1421.71895	-716.85784	-971.12131	1488.22409	-619.34863	-819.58884	1956.81485	-598.43825	-734.62989	1925.72485	-448.01840	-770.09309	1930.36530	-752.41268	-691.81186	1856.55886	-575.93133	-695.91658	1855.55952	-627.58328	-757.84233	1733.88085	-264.76990	-857.10154	1611.21673	-221.08715	-830.11974	1678.78174	-166.34937	-641.75640	1669.40325	-263.90888	-571.17185	1664.74381	-316.06145	-561.22996	1653.42485	-280.79532	-738.58648	1704.21444	-912.96813	-821.63661	1587.94060	-933.51709	-780.15408	1636.98468	-992.24098	-620.51775	1693.30989	-881.34293	-575.38872	1716.14825	-834.18677	-557.65182	1692.87360	-852.17123	-880.10686	1348.99414	-473.49571	-894.45710	1346.07753	-670.42838	-871.91861	1351.12042	-477.75925	-876.28454	1353.09656	-661.48868	
67	0.66000000	-778.87802	889.94610	-418.09648	-886.95686	796.31537	-374.88012	-1129.75202	532.63903	-397.10864	-1183.53510	569.53073	-458.76783	-1111.76061	382.84046	-383.14417	-1071.73229	374.72620	-437.12436	-864.77711	886.15667	-770.07300	-935.57153	697.94884	-755.37510	-1196.92581	526.96474	-746.97055	-1255.19486	536.51710	-677.35387	-1157.28559	366.63849	-783.41364	-1100.94966	371.74015	-730.99694	-965.74475	719.59273	-366.73429	-838.67597	755.46455	-414.36897	-916.14796	671.93123	-415.10095	-986.17807	751.03078	-804.72934	-1070.17675	670.04866	-782.99801	-784.57704	1177.14488	-383.06828	-749.72954	1070.30390	-386.29504	-805.39262	1029.91597	-381.80696	-889.95851	1147.22710	-411.50839	-856.26281	1033.35246	-405.25644	-914.15830	1175.84275	-768.44080	-905.02807	1040.07115	-784.06285	-803.62245	1177.43950	-775.18625	-797.03115	1041.59222	-780.06126	-773.87865	1446.66517	-438.96313	-955.96969	1499.99770	-525.60077	-790.46279	1436.98300	-716.07432	-958.02135	1501.22872	-618.63569	-810.33507	1969.94440	-596.91649	-725.43849	1939.51079	-446.62131	-761.72079	1943.38923	-750.54553	-682.12421	1870.18874	-574.20824	-686.54486	1869.07089	-626.20940	-753.14286	1749.93063	-261.71596	-854.78963	1628.54843	-218.21244	-827.31964	1696.37212	-164.04072	-638.75830	1683.72714	-259.81915	-567.82028	1677.40046	-311.67476	-558.36232	1666.36917	-276.20548	-733.11057	1717.55430	-913.13213	-816.86742	1602.42514	-933.01032	-775.19205	1651.26511	-991.94343	-615.02264	1705.44352	-880.95363	-569.17125	1727.70620	-834.13525	-551.75069	1704.27631	-852.18892	-866.08387	1362.20311	-473.41982	-880.34879	1360.21594	-670.37024	-858.23692	1365.06389	-477.85612	-862.27965	1367.49027	-661.12824	
68	0.67000000	-763.37992	902.80630	-416.11697	-870.29696	808.72944	-372.52108	-1112.04006	544.65913	-393.67333	-1163.01433	585.18119	-454.74068	-1101.93987	393.64752	-382.24226	-1061.19893	381.99844	-435.61786	-851.04804	899.39837	-772.49629	-921.23944	711.50509	-759.90926	-1181.03224	539.45545	-750.52254	-1236.92029	553.98290	-681.13357	-1152.12046	375.43342	-784.82669	-1094.93250	376.18024	-732.41383	-948.43416	731.13918	-363.69271	-821.96308	767.71712	-411.83931	-898.99567	683.85344	-412.05862	-972.46620	765.10629	-807.91798	-1055.85504	683.47593	-786.63740	-771.78351	1189.38396	-381.78242	-736.14176	1082.80887	-384.54121	-791.39057	1041.89899	-380.52856	-876.69448	1158.83376	-410.71187	-842.19696	1045.26590	-404.05768	-901.62810	1188.48169	-768.65101	-892.11395	1052.76032	-785.52241	-791.22274	1190.64338	-776.77266	-783.98675	1054.94639	-782.84445	-761.96349	1459.76273	-438.49825	-943.84314	1512.41022	-524.39031	-778.13419	1451.20457	-714.94431	-945.74832	1513.86071	-617.49149	-800.28496	1982.25526	-595.27326	-715.39336	1952.11037	-445.16761	-752.77871	1955.33149	-749.08518	-671.96000	1882.50426	-572.67531	-676.68906	1881.40917	-624.94335	-747.89021	1764.66376	-258.92596	-852.14428	1644.86236	-215.34475	-824.09808	1713.03470	-161.91184	-635.36796	1696.55437	-256.09955	-564.21349	1688.60307	-307.42546	-555.08142	1677.92131	-271.78963	-727.33527	1729.96203	-913.22042	-812.00515	1615.82429	-932.26283	-769.98730	1664.27109	-991.24128	-608.60976	1716.42930	-880.80517	-562.40285	1737.89926	-834.16793	-545.26913	1714.37566	-852.34737	-853.34482	1374.86966	-472.91207	-867.52685	1373.66959	-669.87521	-845.78765	1378.33161	-477.61450	-849.52824	1381.18075	-660.40761	
